<svg width="86" height="24" viewBox="0 0 86 24" fill="none" xmlns="http://www.w3.org/2000/svg">
<path d="M10.9008 13.4348C10.9008 12.4377 11.0843 11.5623 11.4514 10.8087C11.83 10.0551 12.3405 9.47536 12.9829 9.06956C13.6253 8.66376 14.3422 8.46087 15.1338 8.46087C15.7647 8.46087 16.3383 8.5942 16.8545 8.86086C17.3822 9.12753 17.7952 9.48695 18.0934 9.93913V5.43478H21.0359V18.3043H18.0934V16.913C17.8181 17.3768 17.4223 17.7478 16.9061 18.0261C16.4014 18.3043 15.8106 18.4435 15.1338 18.4435C14.3422 18.4435 13.6253 18.2406 12.9829 17.8348C12.3405 17.4174 11.83 16.8319 11.4514 16.0783C11.0843 15.313 10.9008 14.4319 10.9008 13.4348ZM18.0934 13.4522C18.0934 12.7101 17.8869 12.1246 17.474 11.6956C17.0725 11.2667 16.5792 11.0522 15.9941 11.0522C15.4091 11.0522 14.9101 11.2667 14.4971 11.6956C14.0956 12.113 13.8949 12.6927 13.8949 13.4348C13.8949 14.1768 14.0956 14.7681 14.4971 15.2087C14.9101 15.6377 15.4091 15.8522 15.9941 15.8522C16.5792 15.8522 17.0725 15.6377 17.474 15.2087C17.8869 14.7797 18.0934 14.1942 18.0934 13.4522Z" fill="black"/>
<path d="M26.107 5.43478V18.3043H23.1646V5.43478H26.107Z" fill="black"/>
<path d="M32.61 18.4435C31.6694 18.4435 30.8205 18.2406 30.0634 17.8348C29.3177 17.429 28.7269 16.8493 28.291 16.0956C27.8666 15.342 27.6544 14.4609 27.6544 13.4522C27.6544 12.4551 27.8723 11.5797 28.3082 10.8261C28.7441 10.0609 29.3407 9.47536 30.0978 9.06956C30.8549 8.66376 31.7038 8.46087 32.6445 8.46087C33.5851 8.46087 34.434 8.66376 35.1911 9.06956C35.9482 9.47536 36.5448 10.0609 36.9807 10.8261C37.4166 11.5797 37.6346 12.4551 37.6346 13.4522C37.6346 14.4493 37.4109 15.3304 36.9635 16.0956C36.5276 16.8493 35.9253 17.429 35.1567 17.8348C34.3996 18.2406 33.5507 18.4435 32.61 18.4435ZM32.61 15.8696C33.1721 15.8696 33.6482 15.6609 34.0382 15.2435C34.4397 14.8261 34.6405 14.229 34.6405 13.4522C34.6405 12.6754 34.4455 12.0783 34.0555 11.6609C33.6769 11.2435 33.2066 11.0348 32.6445 11.0348C32.0709 11.0348 31.5948 11.2435 31.2163 11.6609C30.8377 12.0667 30.6484 12.6638 30.6484 13.4522C30.6484 14.229 30.832 14.8261 31.199 15.2435C31.5776 15.6609 32.0479 15.8696 32.61 15.8696Z" fill="black"/>
<path d="M42.138 10.2174C42.4822 9.68405 42.9123 9.26666 43.4286 8.96521C43.9448 8.65217 44.5184 8.49565 45.1493 8.49565V11.6435H44.3405C43.6064 11.6435 43.0557 11.8058 42.6887 12.1304C42.3216 12.4435 42.138 13 42.138 13.8V18.3043H39.1956V8.6H42.138V10.2174Z" fill="black"/>
<path d="M45.9707 13.4348C45.9707 12.4377 46.1542 11.5623 46.5213 10.8087C46.8999 10.0551 47.4103 9.47536 48.0527 9.06956C48.6952 8.66376 49.4121 8.46087 50.2037 8.46087C50.8805 8.46087 51.4713 8.59999 51.976 8.87826C52.4922 9.15652 52.888 9.52173 53.1633 9.97391V8.6H56.1057V18.3043H53.1633V16.9304C52.8765 17.3826 52.475 17.7478 51.9588 18.0261C51.4541 18.3043 50.8633 18.4435 50.1864 18.4435C49.4064 18.4435 48.6952 18.2406 48.0527 17.8348C47.4103 17.4174 46.8999 16.8319 46.5213 16.0783C46.1542 15.313 45.9707 14.4319 45.9707 13.4348ZM53.1633 13.4522C53.1633 12.7101 52.9568 12.1246 52.5438 11.6956C52.1423 11.2667 51.6491 11.0522 51.064 11.0522C50.479 11.0522 49.98 11.2667 49.567 11.6956C49.1655 12.113 48.9647 12.6927 48.9647 13.4348C48.9647 14.1768 49.1655 14.7681 49.567 15.2087C49.98 15.6377 50.479 15.8522 51.064 15.8522C51.6491 15.8522 52.1423 15.6377 52.5438 15.2087C52.9568 14.7797 53.1633 14.1942 53.1633 13.4522Z" fill="black"/>
<path d="M70.486 8.49565C71.6791 8.49565 72.6255 8.86086 73.3252 9.5913C74.0365 10.3217 74.3921 11.3362 74.3921 12.6348V18.3043H71.4669V13.0348C71.4669 12.4087 71.3005 11.9275 70.9678 11.5913C70.6466 11.2435 70.1993 11.0696 69.6257 11.0696C69.0521 11.0696 68.599 11.2435 68.2663 11.5913C67.9451 11.9275 67.7845 12.4087 67.7845 13.0348V18.3043H64.8593V13.0348C64.8593 12.4087 64.6929 11.9275 64.3603 11.5913C64.0391 11.2435 63.5917 11.0696 63.0181 11.0696C62.4445 11.0696 61.9914 11.2435 61.6587 11.5913C61.3375 11.9275 61.1769 12.4087 61.1769 13.0348V18.3043H58.2345V8.6H61.1769V9.81739C61.4752 9.41159 61.8652 9.09275 62.347 8.86086C62.8288 8.61739 63.3737 8.49565 63.9817 8.49565C64.7044 8.49565 65.3468 8.65217 65.9089 8.96521C66.4825 9.27826 66.9299 9.72463 67.2511 10.3043C67.5837 9.77101 68.0369 9.33623 68.6105 9C69.184 8.66376 69.8092 8.49565 70.486 8.49565Z" fill="black"/>
<path d="M75.8649 13.4348C75.8649 12.4377 76.0485 11.5623 76.4156 10.8087C76.7941 10.0551 77.3046 9.47536 77.947 9.06956C78.5894 8.66376 79.3064 8.46087 80.0979 8.46087C80.7747 8.46087 81.3655 8.59999 81.8703 8.87826C82.3865 9.15652 82.7822 9.52173 83.0576 9.97391V8.6H86V18.3043H83.0576V16.9304C82.7708 17.3826 82.3693 17.7478 81.8531 18.0261C81.3483 18.3043 80.7575 18.4435 80.0807 18.4435C79.3006 18.4435 78.5894 18.2406 77.947 17.8348C77.3046 17.4174 76.7941 16.8319 76.4156 16.0783C76.0485 15.313 75.8649 14.4319 75.8649 13.4348ZM83.0576 13.4522C83.0576 12.7101 82.8511 12.1246 82.4381 11.6956C82.0366 11.2667 81.5433 11.0522 80.9583 11.0522C80.3732 11.0522 79.8742 11.2667 79.4612 11.6956C79.0597 12.113 78.859 12.6927 78.859 13.4348C78.859 14.1768 79.0597 14.7681 79.4612 15.2087C79.8742 15.6377 80.3732 15.8522 80.9583 15.8522C81.5433 15.8522 82.0366 15.6377 82.4381 15.2087C82.8511 14.7797 83.0576 14.1942 83.0576 13.4522Z" fill="black"/>
<path d="M0.129056 0L8.5176 7.41193e-07V2.24348L6.27205 3.28696L6.27205 15.3391L8.51759 16.3826L8.51759 18.6261H0.129055L0.129055 16.3826L2.3746 15.3391L2.3746 3.28696L0.129056 2.24348L0.129056 0ZM8.64665 22.2783C8.64665 22.887 8.47458 23.3217 8.13043 23.5826C7.78628 23.8609 7.37331 24 6.89151 24C6.4097 24 5.99673 23.8609 5.65258 23.5826C5.29123 23.3217 5.11056 22.887 5.11056 22.2783C5.11056 21.7043 5.29123 21.2783 5.65259 21C5.99673 20.7217 6.4097 20.5826 6.89151 20.5826C7.37331 20.5826 7.78628 20.7217 8.13043 21C8.47458 21.2783 8.64665 21.7043 8.64665 22.2783ZM3.5619 22.2783C3.5619 22.887 3.38983 23.3217 3.04568 23.5826C2.70154 23.8609 2.27996 24 1.78095 24C1.29915 24 0.886174 23.8609 0.542028 23.5826C0.180676 23.3217 -5.26508e-08 22.887 0 22.2783C4.96421e-08 21.7043 0.180676 21.2783 0.542029 21C0.886174 20.7217 1.29915 20.5826 1.78095 20.5826C2.26275 20.5826 2.68433 20.7217 3.04568 21C3.38983 21.2783 3.5619 21.7043 3.5619 22.2783Z" fill="black"/>
</svg>
